<svg xmlns="http://www.w3.org/2000/svg" width="2048" height="2048" viewBox="0 0 1024 1024">
<title>Playroom folds</title>
<defs><radialGradient id="field" cx="26%" cy="14%" r="115%"><stop stop-color="#ecd1ac"/><stop offset=".52" stop-color="#b38c77"/><stop offset="1" stop-color="#805c52"/></radialGradient></defs>
<path fill="url(#field)" d="M0 0h1024v1024H0z"/>
<g stroke-linecap="round"><path d="M-64 53H180Q218 53 218 91V239Q218 277 180 277H-64V239H153Q178 239 178 214V114Q178 94 153 94H-64Z" fill="#614437" opacity="0.18"/>
<path d="M-67 283H182Q224 283 224 241V88Q224 47 182 47" fill="none" stroke="#ffffff" stroke-width="3" opacity="0.24"/>
<path d="M647-75H874Q915-75 915-34V176Q915 217 874 217H744V178H850Q875 178 875 153V-7Q875-34 849-34H647Z" fill="#ffffff" opacity="0.11"/>
<path d="M754 1106V893Q754 851 796 851H1103V890H824Q797 890 797 916V1106Z" fill="#614437" opacity="0.18"/>
<path d="M746 1105V891Q746 843 794 843H1105" fill="none" stroke="#ffffff" stroke-width="3" opacity="0.24"/>
<path d="M-104 574C88 434 267 523 260 684C255 811 85 841 142 1053" fill="none" stroke="#ffffff" stroke-width="48" opacity="0.11"/></g></svg>