<svg xmlns="http://www.w3.org/2000/svg" width="2048" height="2048" viewBox="0 0 1024 1024">
<title>Dawn terraces</title>
<defs><radialGradient id="field" cx="26%" cy="14%" r="115%"><stop stop-color="#d9bd8d"/><stop offset=".52" stop-color="#9c8460"/><stop offset="1" stop-color="#655037"/></radialGradient></defs>
<path fill="url(#field)" d="M0 0h1024v1024H0z"/>
<g stroke-linecap="round"><path d="M-97 81H234V125H396V175H558V228H770V278H1121V323H735V276H518V224H354V175H191V129H-97Z" fill="#45311f" opacity="0.18"/>
<path d="M-94 135H187V181H350V230H514V282H731V329H1120" fill="none" stroke="#ffffff" stroke-width="3" opacity="0.24"/>
<path d="M-97 616H99V666H222V722H351V766H523V812H749V862H1123V909H710V859H483V815H309V771H181V717H56V668H-97Z" fill="#ffffff" opacity="0.11"/>
<path d="M-96 671H53V722H177V777H304V821H478V865H704V915H1122" fill="none" stroke="#ffffff" stroke-width="3" opacity="0.24"/>
<path d="M753-84H855V26H990V78H1110V123H952V75H809V-27H753Z" fill="#ffffff" opacity="0.11"/></g></svg>